#!OML:ASF F:\VICON\USERDATA\INSTALL\rory3\rory3.ASF
:FULLY-SPECIFIED
:DEGREES
537
root 1.36638 29.2469 -5.08582 -172.697 -32.7474 177.875
lowerback 4.01299 0.0302921 -1.67939
upperback 0.0780373 -0.0233258 1.03309
thorax -2.16881 0.00681615 2.00558
lowerneck -17.3853 6.50104 -8.77803
upperneck 38.6552 10.9414 -1.56959
head 16.4962 1.94884 2.52478
rclavicle -1.47101e-014 -1.70955e-014
rhumerus -34.1177 -8.95496 -76.5809
rradius 25.5738
rwrist 23.544
rhand -18.1234 3.22503
rfingers 7.12502
rthumb 8.1512 -26.5977
lclavicle -1.47101e-014 -1.70955e-014
lhumerus -32.3848 7.16425 81.3928
lradius 38.1942
lwrist 0.372695
lhand -10.3693 26.5066
lfingers 7.12502
lthumb 15.628 55.8953
rfemur -18.4881 8.52215 14.3332
rtibia 29.2012
rfoot -10.9322 4.35325
rtoes 13.2653
lfemur -10.0438 -8.90688 -18.0552
ltibia 22.2712
lfoot -8.34931 -21.5854
ltoes -2.35323
538
root 1.4031 29.2516 -5.12653 -172.64 -33.9092 177.84
lowerback 3.99185 0.0782136 -1.71329
upperback 0.0916966 0.0392357 1.02321
thorax -2.14589 0.0380301 2.01076
lowerneck -17.2622 6.40318 -8.44121
upperneck 38.7144 10.7258 -1.69157
head 16.5422 1.89742 2.37973
rclavicle -4.86525e-014 1.86858e-014
rhumerus -34.2437 -8.83164 -76.6052
rradius 25.3903
rwrist 23.4899
rhand -18.3189 3.09325
rfingers 7.12502
rthumb 7.9626 -26.7368
lclavicle -4.86525e-014 1.86858e-014
lhumerus -32.4035 6.7765 81.5257
lradius 38.1061
lwrist 0.205173
lhand -10.3329 26.8378
lfingers 7.12502
lthumb 15.663 56.2238
rfemur -18.153 8.34235 14.5914
rtibia 29.0639
rfoot -11.5456 3.56016
rtoes 13.232
lfemur -10.4307 -8.8207 -17.8463
ltibia 22.5968
lfoot -8.49419 -21.7892
ltoes -4.12138
539
root 1.43906 29.2529 -5.17006 -172.575 -35.062 177.823
lowerback 3.91876 0.0482309 -1.84883
upperback 0.111892 -0.00405867 1.13683
thorax -2.08217 0.0171021 2.20633
lowerneck -17.173 6.34068 -8.38986
upperneck 38.736 10.6611 -1.81278
head 16.5526 1.86567 2.30631
rclavicle -2.16675e-014 -1.51076e-014
rhumerus -34.4384 -8.43313 -76.5619
rradius 25.5022
rwrist 23.7271
rhand -18.5633 3.29463
rfingers 7.12502
rthumb 7.72664 -26.5442
lclavicle -2.16675e-014 -1.51076e-014
lhumerus -32.4915 6.88197 81.6732
lradius 38.0115
lwrist -0.183045
lhand -10.2306 26.8507
lfingers 7.12502
lthumb 15.7615 56.2289
rfemur -17.8231 8.16643 14.8846
rtibia 28.9172
rfoot -12.1302 2.73464
rtoes 12.5225
lfemur -10.8105 -8.79449 -17.6121
ltibia 22.9285
lfoot -8.34746 -21.8397
ltoes -4.58204
540
root 1.47173 29.2529 -5.20669 -172.406 -36.0724 177.795
lowerback 3.74507 0.064145 -1.90922
upperback 0.153811 0.0183255 1.22915
thorax -1.94297 0.0268388 2.33371
lowerneck -17.1748 6.24905 -8.45619
upperneck 38.7542 10.5968 -1.88892
head 16.572 1.82425 2.27616
rclavicle 5.4467e-014 4.37326e-015
rhumerus -34.781 -8.2037 -76.4786
rradius 26.1852
rwrist 23.9307
rhand -18.4335 3.22506
rfingers 7.12502
rthumb 7.85196 -26.6091
lclavicle 5.4467e-014 4.37326e-015
lhumerus -32.3858 7.13575 81.7862
lradius 37.6763
lwrist -0.697628
lhand -10.0356 25.9441
lfingers 7.12502
lthumb 15.9493 55.3074
rfemur -17.6143 7.7363 15.129
rtibia 28.7182
rfoot -12.4396 2.19954
rtoes 11.3729
lfemur -11.274 -8.73945 -17.4312
ltibia 23.3361
lfoot -8.26297 -21.5659
ltoes -4.79857
541
root 1.49956 29.256 -5.23166 -172.215 -36.9398 177.838
lowerback 3.62286 0.136884 -1.74764
upperback 0.128581 0.124475 1.26065
thorax -1.90585 0.0783314 2.26947
lowerneck -17.1137 6.20486 -8.29392
upperneck 38.8193 10.5423 -2.04726
head 16.6224 1.80272 2.17206
rclavicle 6.4605e-014 -1.90833e-014
rhumerus -35.0529 -8.19834 -76.337
rradius 26.7116
rwrist 24.2058
rhand -18.0038 3.01541
rfingers 7.12502
rthumb 8.26663 -26.8029
lclavicle 6.4605e-014 -1.90833e-014
lhumerus -32.2053 7.32655 81.8324
lradius 37.1052
lwrist -1.19434
lhand -9.89185 25.0448
lfingers 7.12502
lthumb 16.0878 54.397
rfemur -17.5224 7.16317 15.3694
rtibia 28.492
rfoot -12.5865 1.95289
rtoes 11.0076
lfemur -11.7869 -8.48883 -17.2567
ltibia 23.7958
lfoot -8.19292 -21.1105
ltoes -4.58986
542
root 1.52952 29.2592 -5.25893 -172.188 -37.738 178.083
lowerback 3.50203 0.242339 -1.52039
upperback 0.130991 0.276037 1.33577
thorax -1.84283 0.151129 2.21122
lowerneck -17.1221 6.25628 -8.13952
upperneck 38.8942 10.6493 -2.1872
head 16.6861 1.84865 2.10854
rclavicle -1.03964e-013 3.22031e-014
rhumerus -35.0907 -7.94098 -76.2889
rradius 26.9288
rwrist 24.0204
rhand -17.2275 2.64553
rfingers 7.12502
rthumb 9.01585 -27.1418
lclavicle -1.03964e-013 3.22031e-014
lhumerus -32.1691 7.4483 81.88
lradius 36.8511
lwrist -1.75751
lhand -9.8733 25.1821
lfingers 7.12502
lthumb 16.1057 54.5328
rfemur -17.4464 6.77657 15.7787
rtibia 28.2754
rfoot -12.7339 1.65488
rtoes 11.119
lfemur -12.2921 -7.98458 -16.9519
ltibia 24.2718
lfoot -8.45061 -20.5503
ltoes -5.59551
543
root 1.55966 29.2642 -5.2946 -172.299 -38.7635 178.311
lowerback 3.54392 0.296091 -1.34783
upperback 0.119221 0.354444 1.41776
thorax -1.88177 0.188977 2.19445
lowerneck -16.9199 6.25818 -7.85041
upperneck 38.8954 10.6239 -2.41645
head 16.6812 1.85675 1.9508
rclavicle -8.21975e-014 1.03368e-014
rhumerus -35.1649 -7.51471 -76.2856
rradius 27.0203
rwrist 23.54
rhand -16.9842 2.403
rfingers 7.12502
rthumb 9.2506 -27.3741
lclavicle -8.21975e-014 1.03368e-014
lhumerus -32.2996 7.49613 81.8685
lradius 36.7773
lwrist -2.29538
lhand -9.66858 25.3386
lfingers 7.12502
lthumb 16.3028 54.6733
rfemur -17.1756 6.44173 16.2286
rtibia 28.0956
rfoot -12.9963 1.10854
rtoes 10.9239
lfemur -12.7034 -7.58201 -16.677
ltibia 24.745
lfoot -8.93654 -19.8198
ltoes -7.96743
544
root 1.58081 29.2662 -5.31579 -172.214 -40.1371 178.31
lowerback 3.81353 0.216713 -0.981755
upperback -0.111231 0.264211 1.33843
thorax -2.26323 0.145736 1.91117
lowerneck -16.4913 6.28653 -7.64369
upperneck 38.9472 10.545 -2.46003
head 16.6213 1.8546 1.86709
rclavicle 1.49089e-014 -3.57812e-015
rhumerus -35.5266 -7.32083 -76.2458
rradius 27.0401
rwrist 23.3288
rhand -17.4093 2.65314
rfingers 7.12502
rthumb 8.84035 -27.1417
lclavicle 1.49089e-014 -3.57812e-015
lhumerus -32.647 7.59838 81.69
lradius 36.5655
lwrist -2.75187
lhand -9.66707 25.4407
lfingers 7.12502
lthumb 16.3042 54.7752
rfemur -16.9406 5.61696 16.4693
rtibia 27.9784
rfoot -13.2924 0.719112
rtoes 11.0325
lfemur -13.1812 -7.47759 -16.6173
ltibia 25.1869
lfoot -9.31285 -18.8274
ltoes -10.1821
545
root 1.60444 29.2635 -5.33352 -172.104 -41.3716 178.329
lowerback 3.98301 0.172383 -0.685793
upperback -0.273035 0.219747 1.32654
thorax -2.52169 0.122816 1.73513
lowerneck -16.184 6.27165 -7.64696
upperneck 39.0088 10.4736 -2.44682
head 16.5787 1.83044 1.84934
rclavicle -1.64991e-014 -9.54166e-015
rhumerus -35.7213 -7.34725 -76.0482
rradius 27.082
rwrist 23.4432
rhand -17.5224 2.77053
rfingers 7.12502
rthumb 8.73128 -27.0289
lclavicle -1.64991e-014 -9.54166e-015
lhumerus -32.9028 7.65126 81.7512
lradius 36.4636
lwrist -2.86092
lhand -10.1739 26.3066
lfingers 7.12502
lthumb 15.8162 55.6805
rfemur -16.813 4.78733 16.7141
rtibia 27.8967
rfoot -13.5433 0.485488
rtoes 11.2719
lfemur -13.6659 -7.17103 -16.5848
ltibia 25.6029
lfoot -9.88887 -17.5963
ltoes -13.1913
